<?xml version="1.0" encoding="UTF-8"?>
<svg xmlns="http://www.w3.org/2000/svg" width="500" height="500" viewBox="0 0 500 500">
  <g id="uuid-9857f18a-68ed-4717-92a0-5b8e1281bbd4" data-name="BACKGROUND">
    <rect width="500" height="500" fill="#26304d"/>
  </g>
  <g id="uuid-7f95a780-e8a3-443c-903f-8db46c64433c" data-name="OBJECTS">
    <g opacity=".37">
      <path d="m436.76,31.07c0,.53-.43.95-.95.95s-.95-.43-.95-.95.43-.95.95-.95.95.43.95.95Z" fill="#e7eed3"/>
      <path d="m429.44,17.1c0,.53-.43.95-.95.95s-.95-.43-.95-.95.43-.95.95-.95.95.43.95.95Z" fill="#e7eed3"/>
      <path d="m407.5,27.34c0,.53-.43.95-.95.95s-.95-.43-.95-.95.43-.95.95-.95.95.43.95.95Z" fill="#e7eed3"/>
      <path d="m431.34,69.07c0,.53-.43.95-.95.95s-.95-.43-.95-.95.43-.95.95-.95.95.43.95.95Z" fill="#e7eed3"/>
      <path d="m490.59,40.14c0,.53-.43.95-.95.95s-.95-.43-.95-.95.43-.95.95-.95.95.43.95.95Z" fill="#e7eed3"/>
      <path d="m476.98,14.03c0,.53-.43.95-.95.95s-.95-.43-.95-.95.42-.95.95-.95.95.43.95.95Z" fill="#e7eed3"/>
      <path d="m472.45,66.47c0,.53-.43.95-.95.95s-.95-.43-.95-.95.43-.95.95-.95.95.43.95.95Z" fill="#e7eed3"/>
      <path d="m115.26,30.12c0,1.17-.95,2.12-2.12,2.12s-2.12-.95-2.12-2.12.95-2.12,2.12-2.12,2.12.95,2.12,2.12Z" fill="#e7eed3"/>
      <path d="m144.3,107.89c0,.53-.43.95-.95.95s-.95-.43-.95-.95.43-.95.95-.95.95.43.95.95Z" fill="#e7eed3"/>
      <path d="m136.99,93.92c0,.53-.43.95-.95.95s-.95-.43-.95-.95.43-.95.95-.95.95.43.95.95Z" fill="#e7eed3"/>
      <path d="m115.05,104.16c0,.53-.43.95-.95.95s-.95-.43-.95-.95.43-.95.95-.95.95.43.95.95Z" fill="#e7eed3"/>
      <path d="m138.89,145.88c0,.52-.43.95-.95.95s-.95-.43-.95-.95.43-.95.95-.95.95.43.95.95Z" fill="#e7eed3"/>
      <path d="m200.03,64.88c0,.52-.43.95-.95.95s-.95-.43-.95-.95.43-.95.95-.95.95.43.95.95Z" fill="#e7eed3"/>
      <path d="m198.13,116.95c0,.53-.42.95-.95.95s-.95-.43-.95-.95.43-.95.95-.95.95.43.95.95Z" fill="#e7eed3"/>
      <path d="m184.53,90.84c0,.53-.43.95-.95.95s-.95-.43-.95-.95.43-.95.95-.95.95.43.95.95Z" fill="#e7eed3"/>
      <path d="m179.99,143.28c0,.53-.43.95-.95.95s-.95-.42-.95-.95.43-.95.95-.95.95.43.95.95Z" fill="#e7eed3"/>
      <path d="m399.24,204.15c0,1.17-.95,2.12-2.12,2.12s-2.12-.95-2.12-2.12.95-2.12,2.12-2.12,2.12.95,2.12,2.12Z" fill="#e7eed3"/>
      <path d="m390.24,240.43c0,.53-.43.95-.95.95s-.95-.43-.95-.95.43-.95.95-.95.95.43.95.95Z" fill="#e7eed3"/>
      <path d="m382.93,226.46c0,.52-.43.95-.95.95s-.95-.43-.95-.95.43-.95.95-.95.95.43.95.95Z" fill="#e7eed3"/>
      <path d="m360.99,236.7c0,.53-.43.95-.95.95s-.95-.42-.95-.95.43-.95.95-.95.95.43.95.95Z" fill="#e7eed3"/>
      <path d="m384.83,278.43c0,.52-.43.95-.95.95s-.95-.43-.95-.95.43-.95.95-.95.95.43.95.95Z" fill="#e7eed3"/>
      <path d="m482.28,214.36c0,.53-.42.95-.95.95s-.95-.43-.95-.95.43-.95.95-.95.95.43.95.95Z" fill="#e7eed3"/>
      <path d="m444.07,249.5c0,.52-.43.95-.95.95s-.95-.43-.95-.95.43-.95.95-.95.95.43.95.95Z" fill="#e7eed3"/>
      <path d="m453.39,256.53c0,.52-.43.95-.95.95s-.95-.43-.95-.95.43-.95.95-.95.95.43.95.95Z" fill="#e7eed3"/>
      <path d="m483.23,116.94c0,.52-.43.95-.95.95s-.95-.43-.95-.95.43-.95.95-.95.95.43.95.95Z" fill="#e7eed3"/>
      <path d="m430.47,223.39c0,.53-.43.95-.95.95s-.95-.43-.95-.95.43-.95.95-.95.95.43.95.95Z" fill="#e7eed3"/>
      <path d="m425.93,275.83c0,.52-.43.95-.95.95s-.95-.43-.95-.95.43-.95.95-.95.95.43.95.95Z" fill="#e7eed3"/>
      <path d="m42.26,214.77c0,1.17-.95,2.12-2.12,2.12s-2.12-.95-2.12-2.12.95-2.12,2.12-2.12,2.12.95,2.12,2.12Z" fill="#e7eed3"/>
      <path d="m33.26,251.05c0,.53-.42.95-.95.95s-.95-.43-.95-.95.43-.95.95-.95.95.42.95.95Z" fill="#e7eed3"/>
      <path d="m25.95,237.08c0,.52-.43.95-.95.95s-.95-.43-.95-.95.43-.95.95-.95.95.43.95.95Z" fill="#e7eed3"/>
      <path d="m4.01,247.32c0,.53-.43.95-.95.95s-.95-.43-.95-.95.43-.95.95-.95.95.43.95.95Z" fill="#e7eed3"/>
      <path d="m27.85,289.05c0,.52-.43.95-.95.95s-.95-.43-.95-.95.43-.95.95-.95.95.43.95.95Z" fill="#e7eed3"/>
      <path d="m88.99,208.04c0,.53-.43.95-.95.95s-.95-.43-.95-.95.42-.95.95-.95.95.43.95.95Z" fill="#e7eed3"/>
      <path d="m87.09,260.12c0,.52-.43.95-.95.95s-.95-.43-.95-.95.43-.95.95-.95.95.43.95.95Z" fill="#e7eed3"/>
      <path d="m73.49,234.01c0,.53-.43.95-.95.95s-.95-.43-.95-.95.43-.95.95-.95.95.43.95.95Z" fill="#e7eed3"/>
      <path d="m68.95,286.45c0,.52-.43.95-.95.95s-.95-.43-.95-.95.43-.95.95-.95.95.43.95.95Z" fill="#e7eed3"/>
      <path d="m284.41,41.09c0,.53-.43.95-.95.95s-.95-.43-.95-.95.43-.95.95-.95.95.43.95.95Z" fill="#e7eed3"/>
      <path d="m245.06,61.06c0,.53-.43.95-.95.95s-.95-.43-.95-.95.43-.95.95-.95.95.43.95.95Z" fill="#e7eed3"/>
      <path d="m250.92,114.23c0,.53-.43.95-.95.95s-.95-.43-.95-.95.43-.95.95-.95.95.43.95.95Z" fill="#e7eed3"/>
      <path d="m325.08,79.12c0,.53-.43.95-.95.95s-.95-.43-.95-.95.43-.95.95-.95.95.43.95.95Z" fill="#e7eed3"/>
      <path d="m368.13,43.21c0,.52-.43.95-.95.95s-.95-.43-.95-.95.43-.95.95-.95.95.43.95.95Z" fill="#e7eed3"/>
      <path d="m26.17,44.49c0,.53-.43.95-.95.95s-.95-.43-.95-.95.43-.95.95-.95.95.43.95.95Z" fill="#e7eed3"/>
      <path d="m102.89,113.75c0,.53-.43.95-.95.95s-.95-.43-.95-.95.43-.95.95-.95.95.43.95.95Z" fill="#e7eed3"/>
      <path d="m103.84,85.74c0,.53-.42.95-.95.95s-.95-.43-.95-.95.43-.95.95-.95.95.43.95.95Z" fill="#e7eed3"/>
      <path d="m75.31,108.12c0,.53-.43.95-.95.95s-.95-.43-.95-.95.43-.95.95-.95.95.43.95.95Z" fill="#e7eed3"/>
      <path d="m41.38,115.66c0,.53-.43.95-.95.95s-.95-.43-.95-.95.43-.95.95-.95.95.43.95.95Z" fill="#e7eed3"/>
      <path d="m67.49,45.66c0,.53-.43.95-.95.95s-.95-.43-.95-.95.43-.95.95-.95.95.43.95.95Z" fill="#e7eed3"/>
      <path d="m43.28,77.33c0,.52-.43.95-.95.95s-.95-.43-.95-.95.43-.95.95-.95.95.43.95.95Z" fill="#e7eed3"/>
      <path d="m356.16,71.59c0,.52-.43.95-.95.95s-.95-.43-.95-.95.43-.95.95-.95.95.43.95.95Z" fill="#e7eed3"/>
      <path d="m432.88,140.85c0,.53-.43.95-.95.95s-.95-.43-.95-.95.43-.95.95-.95.95.43.95.95Z" fill="#e7eed3"/>
      <path d="m433.83,112.84c0,.53-.43.95-.95.95s-.95-.43-.95-.95.43-.95.95-.95.95.43.95.95Z" fill="#e7eed3"/>
      <path d="m405.31,135.22c0,.53-.43.95-.95.95s-.95-.43-.95-.95.43-.95.95-.95.95.43.95.95Z" fill="#e7eed3"/>
      <path d="m371.37,142.75c0,.53-.43.95-.95.95s-.95-.43-.95-.95.43-.95.95-.95.95.43.95.95Z" fill="#e7eed3"/>
      <path d="m397.48,72.76c0,.53-.43.95-.95.95s-.95-.43-.95-.95.43-.95.95-.95.95.43.95.95Z" fill="#e7eed3"/>
      <path d="m373.27,104.43c0,.53-.43.95-.95.95s-.95-.43-.95-.95.43-.95.95-.95.95.43.95.95Z" fill="#e7eed3"/>
      <path d="m229.41,132.84c0,.53-.43.95-.95.95s-.95-.43-.95-.95.43-.95.95-.95.95.43.95.95Z" fill="#e7eed3"/>
      <path d="m306.13,202.1c0,.53-.43.95-.95.95s-.95-.43-.95-.95.43-.95.95-.95.95.43.95.95Z" fill="#e7eed3"/>
      <path d="m307.09,174.09c0,.53-.43.95-.95.95s-.95-.43-.95-.95.43-.95.95-.95.95.43.95.95Z" fill="#e7eed3"/>
      <path d="m278.56,196.47c0,.53-.43.95-.95.95s-.95-.43-.95-.95.43-.95.95-.95.95.43.95.95Z" fill="#e7eed3"/>
      <path d="m244.63,204.01c0,.53-.43.95-.95.95s-.95-.43-.95-.95.43-.95.95-.95.95.43.95.95Z" fill="#e7eed3"/>
      <path d="m270.73,134.01c0,.53-.43.95-.95.95s-.95-.43-.95-.95.43-.95.95-.95.95.43.95.95Z" fill="#e7eed3"/>
      <path d="m246.53,165.68c0,.53-.43.95-.95.95s-.95-.43-.95-.95.43-.95.95-.95.95.43.95.95Z" fill="#e7eed3"/>
      <path d="m89.36,60.11c0,.52-.43.95-.95.95s-.95-.43-.95-.95.43-.95.95-.95.95.43.95.95Z" fill="#e7eed3"/>
      <path d="m349.59,301.05c0,.52-.43.95-.95.95s-.95-.43-.95-.95.43-.95.95-.95.95.43.95.95Z" fill="#e7eed3"/>
      <path d="m337.69,332.64c0,.52-.43.95-.95.95s-.95-.43-.95-.95.43-.95.95-.95.95.43.95.95Z" fill="#e7eed3"/>
      <path d="m327.01,284.31c0,.52-.43.95-.95.95s-.95-.43-.95-.95.43-.95.95-.95.95.43.95.95Z" fill="#e7eed3"/>
      <path d="m298.48,306.69c0,.52-.43.95-.95.95s-.95-.43-.95-.95.43-.95.95-.95.95.43.95.95Z" fill="#e7eed3"/>
      <path d="m312.52,258.67c0,.53-.43.95-.95.95s-.95-.43-.95-.95.43-.95.95-.95.95.43.95.95Z" fill="#e7eed3"/>
      <path d="m64.52,442.27c0,.52-.43.95-.95.95s-.95-.43-.95-.95.43-.95.95-.95.95.43.95.95Z" fill="#e7eed3"/>
      <path d="m14.71,480.17c0,.52-.43.95-.95.95s-.95-.43-.95-.95.43-.95.95-.95.95.43.95.95Z" fill="#e7eed3"/>
      <path d="m53.04,420.27c0,.52-.43.95-.95.95s-.95-.43-.95-.95.43-.95.95-.95.95.43.95.95Z" fill="#e7eed3"/>
      <path d="m24.51,442.65c0,.52-.43.95-.95.95s-.95-.43-.95-.95.43-.95.95-.95.95.43.95.95Z" fill="#e7eed3"/>
      <path d="m38.55,394.64c0,.53-.43.95-.95.95s-.95-.43-.95-.95.42-.95.95-.95.95.43.95.95Z" fill="#e7eed3"/>
      <path d="m199.43,456.39c0,.52-.43.95-.95.95s-.95-.43-.95-.95.43-.95.95-.95.95.43.95.95Z" fill="#e7eed3"/>
      <path d="m161.8,476.5c0,.52-.43.95-.95.95s-.95-.43-.95-.95.43-.95.95-.95.95.43.95.95Z" fill="#e7eed3"/>
      <path d="m158.66,436.55c0,.52-.43.95-.95.95s-.95-.43-.95-.95.43-.95.95-.95.95.43.95.95Z" fill="#e7eed3"/>
      <path d="m130.14,458.93c0,.52-.43.95-.95.95s-.95-.43-.95-.95.43-.95.95-.95.95.43.95.95Z" fill="#e7eed3"/>
      <path d="m144.18,410.91c0,.53-.43.95-.95.95s-.95-.43-.95-.95.43-.95.95-.95.95.43.95.95Z" fill="#e7eed3"/>
      <path d="m48.67,167.29c0,.52-.43.95-.95.95s-.95-.43-.95-.95.43-.95.95-.95.95.43.95.95Z" fill="#e7eed3"/>
      <path d="m36.51,176.89c0,.52-.43.95-.95.95s-.95-.43-.95-.95.43-.95.95-.95.95.43.95.95Z" fill="#e7eed3"/>
      <path d="m37.46,148.88c0,.52-.43.95-.95.95s-.95-.43-.95-.95.43-.95.95-.95.95.43.95.95Z" fill="#e7eed3"/>
      <path d="m8.93,171.26c0,.52-.43.95-.95.95s-.95-.43-.95-.95.43-.95.95-.95.95.43.95.95Z" fill="#e7eed3"/>
      <path d="m22.98,123.24c0,.53-.43.95-.95.95s-.95-.43-.95-.95.43-.95.95-.95.95.43.95.95Z" fill="#e7eed3"/>
      <path d="m491.36,328.27c0,.52-.43.95-.95.95s-.95-.43-.95-.95.43-.95.95-.95.95.43.95.95Z" fill="#e7eed3"/>
      <path d="m479.21,337.87c0,.52-.43.95-.95.95s-.95-.43-.95-.95.43-.95.95-.95.95.43.95.95Z" fill="#e7eed3"/>
      <path d="m480.15,309.85c0,.52-.43.95-.95.95s-.95-.43-.95-.95.43-.95.95-.95.95.43.95.95Z" fill="#e7eed3"/>
      <path d="m451.63,332.23c0,.52-.43.95-.95.95s-.95-.43-.95-.95.43-.95.95-.95.95.43.95.95Z" fill="#e7eed3"/>
      <path d="m465.67,284.22c0,.53-.43.95-.95.95s-.95-.43-.95-.95.43-.95.95-.95.95.43.95.95Z" fill="#e7eed3"/>
      <path d="m265.53,290.48c0,.52-.42.95-.95.95s-.95-.43-.95-.95.43-.95.95-.95.95.43.95.95Z" fill="#e7eed3"/>
      <path d="m228.97,295.79c0,.52-.43.95-.95.95s-.95-.43-.95-.95.43-.95.95-.95.95.43.95.95Z" fill="#e7eed3"/>
      <path d="m278.44,257.48c0,.52-.43.95-.95.95s-.95-.43-.95-.95.43-.95.95-.95.95.43.95.95Z" fill="#e7eed3"/>
      <path d="m371.74,349.93c0,.52-.43.95-.95.95s-.95-.43-.95-.95.43-.95.95-.95.95.43.95.95Z" fill="#e7eed3"/>
      <path d="m263.96,231.85c0,.53-.43.95-.95.95s-.95-.43-.95-.95.43-.95.95-.95.95.43.95.95Z" fill="#e7eed3"/>
      <path d="m366.74,181.96c0,.52-.43.95-.95.95s-.95-.43-.95-.95.43-.95.95-.95.95.43.95.95Z" fill="#e7eed3"/>
      <path d="m354.58,191.56c0,.52-.43.95-.95.95s-.95-.43-.95-.95.43-.95.95-.95.95.43.95.95Z" fill="#e7eed3"/>
      <path d="m289.84,420.67c.48,1.07,0,2.32-1.07,2.8-1.07.48-2.32,0-2.8-1.07s0-2.32,1.07-2.8c1.07-.48,2.32,0,2.8,1.07Z" fill="#e7eed3"/>
      <path d="m322.29,476.19c.21.48,0,1.04-.48,1.26-.48.21-1.04,0-1.26-.48-.21-.48,0-1.04.48-1.25.48-.21,1.04,0,1.25.48Z" fill="#e7eed3"/>
      <path d="m284.02,447.69c.21.48,0,1.04-.48,1.25-.48.21-1.04,0-1.26-.48-.21-.48,0-1.04.48-1.26.48-.21,1.04,0,1.26.48Z" fill="#e7eed3"/>
      <path d="m268.14,465.97c.21.48,0,1.04-.48,1.26-.48.21-1.04,0-1.26-.48-.21-.48,0-1.04.48-1.25.48-.21,1.04,0,1.25.48Z" fill="#e7eed3"/>
      <path d="m329.79,395.51c.21.48,0,1.04-.48,1.25-.48.21-1.04,0-1.26-.48-.21-.48,0-1.04.48-1.26.48-.21,1.04,0,1.25.48Z" fill="#e7eed3"/>
      <path d="m349.24,443.85c.21.48,0,1.04-.48,1.25-.48.21-1.04,0-1.25-.48-.21-.48,0-1.04.48-1.26.48-.21,1.04,0,1.26.48Z" fill="#e7eed3"/>
      <path d="m326.19,425.53c.21.48,0,1.04-.48,1.26-.48.21-1.04,0-1.25-.48-.21-.48,0-1.04.48-1.25.48-.21,1.04,0,1.26.48Z" fill="#e7eed3"/>
      <path d="m243.92,427.34c.21.48,0,1.04-.48,1.25-.48.21-1.04,0-1.26-.48-.21-.48,0-1.04.48-1.26.48-.21,1.04,0,1.26.48Z" fill="#e7eed3"/>
      <path d="m373.98,477.45c-1.16.14-2.22-.69-2.36-1.85-.14-1.16.69-2.22,1.86-2.36,1.16-.14,2.22.69,2.36,1.85.14,1.16-.69,2.22-1.85,2.36Z" fill="#e7eed3"/>
      <path d="m408.24,412.51c-.52.06-.99-.31-1.06-.83-.06-.52.31-1,.83-1.06.52-.06.99.31,1.06.83.06.52-.31.99-.83,1.06Z" fill="#e7eed3"/>
      <path d="m439.34,422.48c-.52.06-.99-.31-1.06-.83-.06-.52.31-1,.83-1.06.52-.06.99.31,1.06.83.06.52-.31,1-.83,1.06Z" fill="#e7eed3"/>
      <path d="m420.3,363.04c-.52.06-1-.31-1.06-.83-.06-.52.31-.99.83-1.06.52-.06.99.31,1.06.83.06.52-.31,1-.83,1.06Z" fill="#e7eed3"/>
      <path d="m457.54,462.76c-.52.06-.99-.31-1.06-.83s.31-.99.83-1.06c.52-.06.99.31,1.06.83.06.52-.31.99-.83,1.06Z" fill="#e7eed3"/>
      <path d="m405.61,467.04c-.52.06-.99-.31-1.06-.83-.06-.52.31-.99.83-1.06.52-.06.99.31,1.06.83.06.52-.31.99-.83,1.06Z" fill="#e7eed3"/>
      <path d="m429.92,450.44c-.52.06-.99-.31-1.06-.83-.06-.52.31-.99.83-1.06.52-.06.99.31,1.06.83.06.52-.31.99-.83,1.06Z" fill="#e7eed3"/>
      <path d="m452.55,371.31c-.52.06-.99-.31-1.06-.83-.06-.52.31-1,.83-1.06.52-.06.99.31,1.06.83.06.52-.31.99-.83,1.06Z" fill="#e7eed3"/>
      <path d="m355.53,163.54c0,.52-.43.95-.95.95s-.95-.43-.95-.95.43-.95.95-.95.95.43.95.95Z" fill="#e7eed3"/>
      <path d="m327.01,185.92c0,.52-.43.95-.95.95s-.95-.43-.95-.95.43-.95.95-.95.95.43.95.95Z" fill="#e7eed3"/>
      <path d="m341.05,137.91c0,.53-.43.95-.95.95s-.95-.43-.95-.95.43-.95.95-.95.95.43.95.95Z" fill="#e7eed3"/>
      <path d="m230.22,7.38c0,.53-.42.95-.95.95s-.95-.43-.95-.95.43-.95.95-.95.95.43.95.95Z" fill="#e7eed3"/>
      <path d="m221.44,78.17c0,.53-.42.95-.95.95s-.95-.43-.95-.95.43-.95.95-.95.95.43.95.95Z" fill="#e7eed3"/>
      <path d="m328.18,23.98c0,1.17-.95,2.12-2.12,2.12s-2.12-.95-2.12-2.12.95-2.12,2.12-2.12,2.12.95,2.12,2.12Z" fill="#e7eed3"/>
      <circle cx="152.62" cy="43.21" r="2.12" fill="#e7eed3"/>
      <circle cx="314.11" cy="116.35" r="2.12" fill="#e7eed3"/>
      <circle cx="408.89" cy="47.46" r="2.12" fill="#e7eed3"/>
      <path d="m79.06,319.03c0,1.17-.95,2.12-2.12,2.12s-2.12-.95-2.12-2.12.95-2.12,2.12-2.12,2.12.95,2.12,2.12Z" fill="#e7eed3"/>
      <path d="m70.06,355.31c0,.52-.43.95-.95.95s-.95-.43-.95-.95.43-.95.95-.95.95.43.95.95Z" fill="#e7eed3"/>
      <path d="m44.32,322.04c0,.53-.43.95-.95.95s-.95-.43-.95-.95.42-.95.95-.95.95.43.95.95Z" fill="#e7eed3"/>
      <path d="m478.71,487.33c0,.52-.43.95-.95.95s-.95-.43-.95-.95.43-.95.95-.95.95.43.95.95Z" fill="#e7eed3"/>
      <path d="m64.65,393.3c0,.53-.43.95-.95.95s-.95-.43-.95-.95.43-.95.95-.95.95.43.95.95Z" fill="#e7eed3"/>
      <path d="m123.89,364.38c0,.53-.43.95-.95.95s-.95-.43-.95-.95.43-.95.95-.95.95.43.95.95Z" fill="#e7eed3"/>
      <path d="m110.29,338.27c0,.53-.43.95-.95.95s-.95-.43-.95-.95.43-.95.95-.95.95.43.95.95Z" fill="#e7eed3"/>
      <path d="m105.75,390.7c0,.53-.43.95-.95.95s-.95-.43-.95-.95.42-.95.95-.95.95.43.95.95Z" fill="#e7eed3"/>
      <path d="m20.11,276.83c0,.53-.43.95-.95.95s-.95-.43-.95-.95.43-.95.95-.95.95.43.95.95Z" fill="#e7eed3"/>
      <path d="m10.85,407.7c0,.52-.43.95-.95.95s-.95-.43-.95-.95.43-.95.95-.95.95.43.95.95Z" fill="#e7eed3"/>
      <path d="m44.32,371.69c0,1.17-.95,2.12-2.12,2.12s-2.12-.95-2.12-2.12.95-2.12,2.12-2.12,2.12.95,2.12,2.12Z" fill="#e7eed3"/>
      <path d="m64.05,147.95c0,1.17-.95,2.12-2.12,2.12s-2.12-.95-2.12-2.12.95-2.12,2.12-2.12,2.12.95,2.12,2.12Z" fill="#e7eed3"/>
      <circle cx="189.41" cy="132.61" r="2.12" fill="#e7eed3"/>
      <circle cx="316.23" cy="217.57" r="2.12" fill="#e7eed3"/>
      <path d="m462.14,168.43c0,1.17-.95,2.12-2.12,2.12s-2.12-.95-2.12-2.12.95-2.12,2.12-2.12,2.12.95,2.12,2.12Z" fill="#e7eed3"/>
      <path d="m482.28,413.4c0,1.17-.95,2.12-2.12,2.12s-2.12-.95-2.12-2.12.95-2.12,2.12-2.12,2.12.95,2.12,2.12Z" fill="#e7eed3"/>
      <path d="m279.7,326.06c-.89.76-2.23.66-2.99-.23-.76-.89-.66-2.23.23-2.99.89-.76,2.23-.66,2.99.23.76.89.66,2.23-.23,2.99Z" fill="#e7eed3"/>
      <path d="m224.35,349.4c-.4.34-1,.3-1.34-.1-.34-.4-.29-1,.1-1.34.4-.34,1-.29,1.34.11.34.4.29,1-.1,1.34Z" fill="#e7eed3"/>
      <path d="m230.2,334.76c-.4.34-1,.29-1.34-.1-.34-.4-.29-1,.1-1.34.4-.34,1-.29,1.34.1.34.4.29,1-.1,1.34Z" fill="#e7eed3"/>
      <path d="m208.15,324.76c-.4.34-1,.29-1.34-.1-.34-.4-.3-1,.1-1.34.4-.34,1-.29,1.34.1.34.4.3,1-.1,1.34Z" fill="#e7eed3"/>
      <path d="m191.97,370.01c-.4.34-1,.3-1.34-.1-.34-.4-.29-1,.11-1.34.4-.34,1-.3,1.34.1.34.4.29,1-.1,1.34Z" fill="#e7eed3"/>
      <path d="m293.26,363.77c-.4.34-1,.29-1.34-.1-.34-.4-.3-1,.1-1.34.4-.34,1-.29,1.34.1.34.4.29,1-.1,1.34Z" fill="#e7eed3"/>
      <path d="m252.47,396.19c-.4.34-1,.29-1.34-.1-.34-.4-.29-1,.1-1.34.4-.34,1-.3,1.34.1.34.4.3,1-.1,1.34Z" fill="#e7eed3"/>
      <path d="m263.45,368.88c-.4.34-1,.3-1.34-.1-.34-.4-.29-1,.1-1.34.4-.34,1-.29,1.34.1.34.4.29,1-.1,1.34Z" fill="#e7eed3"/>
      <path d="m220.67,399.54c-.4.34-1,.29-1.34-.1s-.29-1,.1-1.34c.4-.34,1-.29,1.34.1.34.4.29,1-.1,1.34Z" fill="#e7eed3"/>
      <path d="m198.75,260.59c-.4.34-1,.29-1.34-.1-.34-.4-.29-1,.1-1.34.4-.34,1-.29,1.34.1.34.4.29,1-.1,1.34Z" fill="#e7eed3"/>
      <path d="m220.65,243.09c-.4.34-1,.29-1.34-.1-.34-.4-.29-1,.1-1.34.4-.34,1-.29,1.34.1.34.4.29,1-.1,1.34Z" fill="#e7eed3"/>
      <path d="m185.1,235.98c-.4.34-1,.29-1.34-.1-.34-.4-.3-1,.1-1.34.4-.34,1-.29,1.34.1.34.4.29,1-.1,1.34Z" fill="#e7eed3"/>
      <path d="m157.3,215.1c-.4.34-1,.3-1.34-.1-.34-.4-.3-1,.1-1.34.4-.34,1-.29,1.34.1.34.4.29,1-.1,1.34Z" fill="#e7eed3"/>
      <path d="m187.65,191.62c-.4.34-1,.3-1.34-.1-.34-.4-.29-1,.1-1.34.4-.34,1-.29,1.34.1.34.4.29,1-.1,1.34Z" fill="#e7eed3"/>
      <path d="m158.8,367.59c-.4.34-1,.3-1.34-.1-.34-.4-.29-1,.1-1.34.4-.34,1-.29,1.34.1.34.4.3,1-.1,1.34Z" fill="#e7eed3"/>
      <path d="m137.2,330.82c-.4.34-1,.29-1.34-.1-.34-.4-.29-1,.1-1.34.4-.34,1-.29,1.34.1.34.4.29,1-.1,1.34Z" fill="#e7eed3"/>
      <path d="m171.57,331.46c-.4.34-1,.29-1.34-.1-.34-.4-.29-1,.1-1.34.4-.34,1-.29,1.34.1.34.4.29,1-.1,1.34Z" fill="#e7eed3"/>
      <path d="m159.94,302.24c-.4.34-1,.3-1.34-.1-.34-.4-.29-1,.1-1.34.4-.34,1-.29,1.34.1.34.4.29,1-.1,1.34Z" fill="#e7eed3"/>
      <path d="m235.07,442.42c-.4.34-1,.3-1.34-.1-.34-.4-.29-1,.1-1.34.4-.34,1-.29,1.34.1.34.4.29,1-.1,1.34Z" fill="#e7eed3"/>
      <path d="m131.98,296.06c-.4.34-1,.3-1.34-.1-.34-.4-.29-1,.1-1.34.4-.34,1-.3,1.34.1.34.4.29,1-.1,1.34Z" fill="#e7eed3"/>
      <path d="m138.68,275.58c-.4.34-1,.29-1.34-.1-.34-.4-.3-1,.1-1.34.4-.34,1-.29,1.34.1.34.4.3,1-.1,1.34Z" fill="#e7eed3"/>
      <path d="m116.18,212.8c-.4.34-1,.29-1.34-.1-.34-.4-.29-1,.1-1.34.4-.34,1-.29,1.34.1.34.4.29,1-.1,1.34Z" fill="#e7eed3"/>
      <path d="m148.73,247.9c-.4.34-1,.3-1.34-.1-.34-.4-.3-1,.1-1.34.4-.34,1-.29,1.34.1.34.4.29,1-.1,1.34Z" fill="#e7eed3"/>
      <path d="m366.17,401.1c-.4.34-1,.3-1.34-.1-.34-.4-.29-1,.1-1.34.4-.34,1-.3,1.34.1.34.4.29,1-.1,1.34Z" fill="#e7eed3"/>
      <path d="m360.09,360.59c-.4.34-1,.29-1.34-.1-.34-.4-.29-1,.1-1.34.4-.34,1-.29,1.34.1.34.4.29,1-.1,1.34Z" fill="#e7eed3"/>
      <path d="m408.61,325.71c-.4.34-1,.29-1.34-.1-.34-.4-.29-1,.1-1.34.4-.34,1-.29,1.34.1.34.4.3,1-.1,1.34Z" fill="#e7eed3"/>
      <path d="m224.62,265.92c-.4.34-1,.29-1.34-.1-.34-.4-.3-1,.1-1.34s1-.29,1.34.1c.34.4.3,1-.1,1.34Z" fill="#e7eed3"/>
      <path d="m194.95,279.93c-.89.76-2.23.66-2.99-.23-.76-.89-.66-2.23.23-2.99.89-.76,2.23-.66,2.99.23.76.89.66,2.23-.23,2.99Z" fill="#e7eed3"/>
      <path d="m325.8,357.18c-.89.76-2.23.66-2.99-.23-.76-.89-.66-2.23.23-2.99.89-.76,2.23-.66,2.99.23s.66,2.23-.23,2.99Z" fill="#e7eed3"/>
      <path d="m196.53,409.33c-.89.76-2.23.66-2.99-.23-.76-.89-.66-2.23.23-2.99.89-.76,2.23-.66,2.99.23.76.89.66,2.23-.23,2.99Z" fill="#e7eed3"/>
      <circle cx="15.93" cy="346.88" r="2.12" fill="#e7eed3"/>
      <path d="m102.33,437.96c.48,1.07,0,2.32-1.07,2.8s-2.32,0-2.8-1.07c-.48-1.07,0-2.32,1.07-2.8,1.07-.48,2.32,0,2.8,1.07Z" fill="#e7eed3"/>
      <path d="m104.3,481.46c.21.48,0,1.04-.48,1.26-.48.21-1.04,0-1.26-.48-.21-.48,0-1.04.48-1.25.48-.21,1.04,0,1.25.48Z" fill="#e7eed3"/>
      <path d="m80.38,464.97c.21.48,0,1.04-.48,1.25-.48.21-1.04,0-1.26-.48-.21-.48,0-1.04.48-1.26.48-.21,1.04,0,1.25.48Z" fill="#e7eed3"/>
      <path d="m64.5,483.25c.21.48,0,1.04-.48,1.26-.48.21-1.04,0-1.25-.48-.21-.48,0-1.04.48-1.25.48-.21,1.04,0,1.25.48Z" fill="#e7eed3"/>
    </g>
    <g>
      <circle cx="250.55" cy="215.5" r="130.46" transform="translate(-8.05 421.27) rotate(-79.21)" fill="#fbc90d"/>
      <path d="m170.24,212.29c11.99-71.02,79.26-118.88,150.28-106.93-14.27-9.07-30.54-15.5-48.26-18.5-71.04-11.99-138.36,35.88-150.35,106.92-11.99,71.04,35.88,138.36,106.92,150.35.02,0,.05,0,.07.01-42.94-27.31-67.67-78.53-58.66-131.86Z" fill="#eab611"/>
      <g>
        <path d="m300.99,168.98c-.57-.05-1.01-.52-1-1.1.03-2.76,2.3-4.99,5.06-4.96,2.78.02,4.99,2.3,4.96,5.06,0,.6-.5,1.09-1.11,1.08-.6,0-1.09-.5-1.08-1.11.02-1.56-1.24-2.82-2.79-2.85-1.56-.02-2.83,1.24-2.85,2.79,0,.61-.5,1.09-1.11,1.08-.03,0-.05,0-.08,0Z" fill="#26304d"/>
        <path d="m262.95,166.39c-.57-.05-1.01-.52-1-1.1.03-2.76,2.3-4.99,5.06-4.96,2.75.02,4.99,2.3,4.96,5.06,0,.61-.5,1.09-1.11,1.08-.62,0-1.09-.5-1.08-1.11.02-1.56-1.25-2.83-2.8-2.85-1.56-.02-2.83,1.24-2.85,2.79,0,.6-.5,1.09-1.11,1.08-.03,0-.05,0-.08,0Z" fill="#26304d"/>
        <path d="m286.6,178.41c-1.21-.1-2.33-.62-3.18-1.5-.94-.96-1.44-2.23-1.42-3.56,0-.61.5-1.09,1.11-1.08.61.01,1.09.51,1.08,1.11-.01.75.27,1.47.8,2.01.53.54,1.24.84,1.99.85,1.56.02,2.84-1.23,2.86-2.78,0-.61.5-1.09,1.11-1.08.61,0,1.09.5,1.08,1.11-.04,2.76-2.32,4.98-5.08,4.94-.12,0-.23,0-.35-.02Z" fill="#e8592c"/>
      </g>
      <g>
        <path d="m304.97,249.27l-58.91,125.11s-5.01,8.95.26,14.42c5.35,5.56,15.55,9.4,19.87,6.53,1.94-1.3,4.24-4.97,4.34-6.49.33-4.7-8.1-7.14-12.85-10.57-6.28-4.54-5.01-8.43-2.33-14.81,3.59-8.56,52.1-111.52,52.93-112.95.98-1.67-2.16-4.44-3.32-1.23Z" fill="#bfb295"/>
        <path d="m291.62,277.63l13.36-28.37c1.16-3.21,4.3-.44,3.32,1.23-.28.47-6.23,13.03-13.6,28.66,0,0-1.71.89-3.08-1.53Z" fill="#e57341"/>
      </g>
      <path d="m380.81,222.58c-7.46,55.81-68.91,67.17-84.92,59.41-9.51-4.61-6.04-10.71-.85-11,.49-.03-1.09-3.85-.21-3.85,2.44,0,5.88,2.79,9.82,2.09,10.48-1.85,46.16-18.26,50.1-45.75" fill="#eab611"/>
      <path d="m380.81,222.58c-10.12,54.96-74.08,63.29-83.74,59.79-9.93-3.6-8.61-11.03-3.42-11.32.49-.03.95-.05,1.39-.06,1.1-.04-1.09-3.85-.21-3.85,2.44,0,7.58,3.81,11.52,3.11,10.48-1.85,46.53-19.4,50.47-46.89" fill="#fbc90d"/>
      <path d="m212.2,202.99c3.94,55.74,70.82,72.22,80.9,70.22,14.11-2.8,15.01-11.61,9.88-12.48-.49-.08-.94-.15-1.37-.22-1.09-.16.3-3.18-.57-3.28-2.43-.28-7.49,2.29-11.33,1.16-10.21-3.01-42.42-23.05-43.27-50.81" fill="#eab611"/>
      <path d="m216.16,202.08c3.94,55.74,69.57,72.64,79.56,70.24,10.27-2.47,11.18-10.19,6.05-11.05-.49-.08-.94-.15-1.37-.22-1.09-.16,1.51-3.71.64-3.81-2.43-.28-7.96,2.94-11.8,1.81-10.21-3.01-44.07-24.46-44.93-52.22" fill="#fbc90d"/>
    </g>
    <path d="m255.81,265.13s-.06,0-.08,0c-9.55-1.06-15.93-6.75-16.2-6.99-.41-.37-.44-1-.07-1.41.37-.41,1-.44,1.41-.07.06.05,6.19,5.5,15.08,6.49.55.06.95.56.88,1.1-.06.52-.51.9-1.02.89Z" fill="#eab611"/>
    <path d="m251.19,269.11c-.06,0-.12,0-.18-.02-9.62-2.03-16.63-8.62-16.92-8.9-.4-.38-.42-1.01-.03-1.41.38-.4,1.01-.42,1.41-.04.07.06,6.91,6.48,15.95,8.4.54.11.89.64.77,1.18-.1.48-.53.81-1,.79Z" fill="#eab611"/>
    <path d="m409.08,398.06c-12.63,0-22.86-3.37-22.86-7.52s10.24-7.52,22.86-7.52,22.86,3.37,22.86,7.52-10.24,7.52-22.86,7.52Z" fill="#0f1625"/>
  </g>
</svg>