<?xml version="1.0" encoding="UTF-8"?>
<svg xmlns="http://www.w3.org/2000/svg" width="219.42" height="254.51" xmlns:xlink="http://www.w3.org/1999/xlink" viewBox="0 0 219.42 254.51">
  <defs>
    <radialGradient id="uuid-1c5185f1-d5af-4380-8a67-f886ad45f8d4" cx="94.04" cy="215.42" fx="94.04" fy="215.42" r="104.8" gradientTransform="translate(0 144.38) scale(1 .33)" gradientUnits="userSpaceOnUse">
      <stop offset=".21" stop-color="#000"/>
      <stop offset="1" stop-color="#fff" stop-opacity="0"/>
    </radialGradient>
    <linearGradient id="uuid-775ae781-d49e-490a-bc38-b34f8daca53a" x1="35.57" y1="153.94" x2="159.53" y2="248.65" gradientTransform="translate(116.97 -6.61) rotate(173.19) scale(1 -1)" gradientUnits="userSpaceOnUse">
      <stop offset="0" stop-color="#8056a5" stop-opacity="0"/>
      <stop offset="1" stop-color="#8056a5"/>
    </linearGradient>
    <linearGradient id="uuid-91a3495d-2f3a-4d6f-88c2-b5c9e0ea09c7" x1="56.52" y1="82.42" x2="-63.96" y2="90.05" gradientTransform="translate(116.97 -6.61) rotate(173.19) scale(1 -1)" gradientUnits="userSpaceOnUse">
      <stop offset="0" stop-color="#d267b3" stop-opacity="0"/>
      <stop offset="1" stop-color="#d267b3"/>
    </linearGradient>
    <linearGradient id="uuid-465e7f5c-8a82-4411-99ba-179bdbb426c8" x1="30.57" y1="180.57" x2="-80.88" y2="178.45" xlink:href="#uuid-91a3495d-2f3a-4d6f-88c2-b5c9e0ea09c7"/>
    <linearGradient id="uuid-766291da-9429-4cc9-b2f1-6429e7915754" x1="107" y1="141.5" x2="46.27" y2="185.93" xlink:href="#uuid-775ae781-d49e-490a-bc38-b34f8daca53a"/>
    <radialGradient id="uuid-4724e020-fdf7-4bdb-ba5c-c4aacc4ed450" cx="25.18" cy="68.38" fx="25.18" fy="68.38" r="63.09" gradientTransform="translate(128.78 54.83) rotate(175.33) scale(1.04 -.28)" gradientUnits="userSpaceOnUse">
      <stop offset="0" stop-color="#231f20"/>
      <stop offset="1" stop-color="#231f20" stop-opacity="0"/>
    </radialGradient>
    <linearGradient id="uuid-a6fe151f-2af8-4d02-8b95-b5b7fc4dcc59" x1="-25.24" y1="41.77" x2="-65.04" y2="40.93" gradientTransform="translate(121.74 18.85) rotate(8.48)" gradientUnits="userSpaceOnUse">
      <stop offset=".23" stop-color="#67498e" stop-opacity="0"/>
      <stop offset="1" stop-color="#67498e"/>
    </linearGradient>
    <linearGradient id="uuid-70d37434-c786-4754-a8ed-b1fe2c141b41" x1="-225.8" y1="96.85" x2="-265.6" y2="96.02" gradientTransform="translate(-120.47 47.49) rotate(157.91) scale(1 -1)" xlink:href="#uuid-a6fe151f-2af8-4d02-8b95-b5b7fc4dcc59"/>
    <linearGradient id="uuid-cc81628c-1d66-450f-baf8-56b1819d084b" x1="17.07" y1="73.1" x2="17.07" y2="52.49" gradientTransform="translate(116.97 -6.61) rotate(173.19) scale(1 -1)" xlink:href="#uuid-a6fe151f-2af8-4d02-8b95-b5b7fc4dcc59"/>
  </defs>
  <g isolation="isolate">
    <g id="uuid-826efd8b-a2a8-45d6-b62c-77845fe115b2" data-name="OBJECTS">
      <g>
        <ellipse cx="94.04" cy="216.01" rx="109.25" ry="36.67" fill="url(#uuid-1c5185f1-d5af-4380-8a67-f886ad45f8d4)" mix-blend-mode="multiply"/>
        <g>
          <path d="m130.87,53.18c5.3-.4,10.62.32,15.62,2.12l60.8,21.9c7.93,2.86,12.9,10.76,12.03,19.15l-12.36,119.56c-.97,9.41-7.87,17.14-17.11,19.17l-84.54,18.59c-9.5,2.09-19.45.22-27.55-5.17l-40.53-26.97c-7.12-4.74-12.13-12.04-14.01-20.38L.18,76.15c-.55-2.96.18-6.02,2.01-8.42,1.83-2.4,4.58-3.91,7.59-4.17l121.09-10.38Z" fill="#b763c6"/>
          <path d="m130.36,56.31c5.13-.39,10.28.31,15.12,2.06l58.86,21.2c7.68,2.77,12.49,10.41,11.65,18.53l-11.97,115.74c-.94,9.11-7.62,16.59-16.56,18.56l-81.83,17.99c-9.2,2.02-18.82.22-26.67-5l-39.23-26.11c-6.89-4.58-11.75-11.65-13.56-19.73L4.01,78.56c-.53-2.87.18-5.82,1.95-8.14,1.77-2.32,4.43-3.78,7.34-4.03l117.06-10.07Z" fill="url(#uuid-775ae781-d49e-490a-bc38-b34f8daca53a)"/>
          <path d="m73.72,97.12c10.05,4.74,21.29,6.36,32.27,4.63l96.86-15.19c1.67-.26,2.95-1.63,3.1-3.32.15-1.69-.86-3.26-2.46-3.82l-61.76-21.5c-3.58-1.25-7.38-1.72-11.15-1.39l-114.61,10.09c-.71.06-1.29.59-1.41,1.29s.23,1.4.88,1.7l58.28,27.5Z" fill="url(#uuid-91a3495d-2f3a-4d6f-88c2-b5c9e0ea09c7)"/>
          <path d="m100.1,235.22c0,3.12,1.42,6.07,3.87,7.99,2.45,1.92,5.66,2.61,8.68,1.86l76.54-19.02c4.21-1.05,12.32-7.71,12.87-17.53l8.97-108.33c.16-1.88-.56-3.73-1.94-5.02-1.38-1.29-3.28-1.87-5.15-1.58l-94.92,14.7c-4.92.76-8.55,4.99-8.57,9.96l-.36,116.98Z" fill="url(#uuid-465e7f5c-8a82-4411-99ba-179bdbb426c8)"/>
          <polygon points="133.9 247.39 164.3 240.7 173.22 95.15 128.36 101.8 133.9 247.39" fill="#67498e"/>
          <polygon points="54.98 58.93 95.29 55.88 173.22 95.15 128.36 101.8 54.98 58.93" fill="#67498e"/>
          <path d="m77.82,109.08c5.93,2.71,9.75,8.61,9.8,15.12l.88,112.31c.02,2.24-1.21,4.3-3.18,5.35-1.97,1.05-4.37.92-6.22-.34l-39.39-26.94c-3.65-2.49-6.16-6.32-7-10.66L9.86,85.7c-.31-1.62.3-3.28,1.6-4.3,1.3-1.02,3.06-1.23,4.56-.55l61.79,28.23Z" fill="url(#uuid-766291da-9429-4cc9-b2f1-6429e7915754)" opacity=".6"/>
          <path d="m87.24,121.48c-1.69,36.88-.06,92.39,2.14,115.72,1.3-22.78.95-78.77-2.14-115.72Z" fill="#fff" mix-blend-mode="screen" opacity=".4"/>
          <polygon points="22.25 80.64 160.31 60.66 185.98 69.53 51.38 95 22.25 80.64" fill="#67498e"/>
          <path d="m32.86,81.61c.79,9.67,33.4,14.91,72.85,11.69,39.44-3.22,70.78-13.67,69.99-23.34-.79-9.67-33.4-14.91-72.85-11.69-39.44,3.22-70.78,13.67-69.99,23.34Z" fill="url(#uuid-4724e020-fdf7-4bdb-ba5c-c4aacc4ed450)" mix-blend-mode="multiply" opacity=".5"/>
          <g>
            <g>
              <path d="m106.58,50.43c-26.35-12.76-19.52-38.01-39.19-40.95-9.8-1.46-14.78,5.16-16.25,15.01-1.54,10.33.72,19.18.19,22.69-1.1,7.36-10.58,21.23-11.56,27.82-1.22,8.17,5.55,9.91,13.66,11.12,11.73,1.75,46.99-10.67,49.72-16.13l3.43-19.56Z" fill="#3872b2"/>
              <path d="m106.58,50.43c-26.35-12.76-19.52-38.01-39.19-40.95-9.8-1.46-14.78,5.16-16.25,15.01-1.54,10.33.72,19.18.19,22.69-1.1,7.36-10.58,21.23-11.56,27.82-1.22,8.17,5.55,9.91,13.66,11.12,11.73,1.75,46.99-10.67,49.72-16.13l3.43-19.56Z" fill="#67498e"/>
              <path d="m94.44,52.87s-42.18-9.02-37.34-35.39c-7.29,1.96-4.18,24-3.61,30.2.75,8.18-12.03,23.4-11.2,30.35.53,4.44,17.73,11.72,51.82-6.64,1.06-13.23.33-18.52.33-18.52Z" fill="url(#uuid-a6fe151f-2af8-4d02-8b95-b5b7fc4dcc59)" mix-blend-mode="screen" opacity=".5"/>
              <path d="m100.67,50.55c-21.72-10.18-19.08-35-32.83-37.05-2.39-.36-6.23-.52-6.96,4.36-1.38,9.28,8.67,29.78,39.78,32.69Z" fill="#4a356d"/>
            </g>
            <g>
              <path d="m108.25,50.23c22.61-18.6,10.02-41.54,28.45-49.02,9.18-3.73,15.58,1.53,19.33,10.76,3.93,9.68,3.82,18.81,5.15,22.1,2.8,6.89,15.28,18.14,17.78,24.32,3.11,7.66-3.06,10.94-10.66,14.02-10.99,4.46-48.18.69-52.12-3.98l-7.94-18.21Z" fill="#3872b2"/>
              <path d="m108.25,50.23c22.61-18.6,10.02-41.54,28.45-49.02,9.18-3.73,15.58,1.53,19.33,10.76,3.93,9.68,3.82,18.81,5.15,22.1,2.8,6.89,15.28,18.14,17.78,24.32,3.11,7.66-3.06,10.94-10.66,14.02-10.99,4.46-48.18.69-52.12-3.98l-7.94-18.21Z" fill="#67498e"/>
              <path d="m120.63,49.75s38.87-18.7,27.96-43.18c7.55.18,9.71,22.35,10.62,28.5,1.2,8.13,17.2,19.91,18.02,26.86.53,4.45-14.48,15.56-51.93,5.75-4.14-12.61-4.68-17.93-4.68-17.93Z" fill="url(#uuid-70d37434-c786-4754-a8ed-b1fe2c141b41)" mix-blend-mode="screen" opacity=".5"/>
              <path d="m114.03,48.96c18.72-15.01,10.31-38.51,23.18-43.74,2.24-.91,5.93-1.98,7.79,2.6,3.53,8.7-1.42,30.99-30.97,41.13Z" fill="#4a356d"/>
            </g>
            <path d="m102.26,58c.92.21,13.57,2.78,20.75,2.81,13.69-.2,22.11-3.87,31-10.15-11.67,5.85-23.32,9.11-39.31,8.11,5.46-.24,11.39-1.14,16.14-2.91,4.47-1.58,6.63-2.53,11.75-6.33-10.94,5.41-25.02,8.77-40.32,8.46Z" fill="#67498e" mix-blend-mode="multiply" opacity=".2"/>
            <path d="m112.07,61.15c-.91.24-13.47,3.23-20.64,3.49-13.69.25-22.22-3.15-31.31-9.13,11.86,5.47,23.6,8.34,39.55,6.82-5.47-.06-11.42-.76-16.23-2.38-4.52-1.43-6.71-2.31-11.95-5.94,11.11,5.05,25.29,7.94,40.58,7.14Z" fill="#67498e" mix-blend-mode="multiply" opacity=".2"/>
            <path d="m113.07,45.45c5.14,3,6.3,10.73,6.95,16.21.89,7.44-3.34,11.37-10.4,12.21-7.06.84-12.38-2.85-13.56-12.77-.51-4.27-2.5-9.88.08-12.72,2.89-3.18,13.22-5.1,16.93-2.93Z" fill="#67498e"/>
            <path d="m112.19,46.52c4.41,2.58,5.4,9.21,5.96,13.91.76,6.38-2.87,9.75-8.92,10.47-6.05.72-10.62-2.44-11.63-10.96-.44-3.66-2.15-8.48.07-10.91,2.48-2.72,11.34-4.37,14.53-2.51Z" fill="url(#uuid-cc81628c-1d66-450f-baf8-56b1819d084b)" mix-blend-mode="screen" opacity=".5"/>
          </g>
          <polygon points="42.62 225.22 59.13 236.01 51.28 94.22 22.25 80.64 42.62 225.22" fill="#67498e"/>
          <path d="m209.71,88.1c-162.02,22.62-82.18,30.97-201.9-14.35,82.4,38,78.77,36.03,86.76,35.7,12.65-.8,99.68-18.09,115.14-21.35Z" fill="#fff" mix-blend-mode="screen" opacity=".4"/>
        </g>
      </g>
    </g>
  </g>
</svg>