<?xml version="1.0" encoding="UTF-8"?>
<svg id="Layer_1" data-name="Layer 1" xmlns="http://www.w3.org/2000/svg" width="750" height="750.63" viewBox="0 0 750 750.63">
  <circle cx="375" cy="375" r="375" fill="#4bc190"/>
  <circle cx="375" cy="375" r="300" fill="#fff" isolation="isolate" opacity=".3"/>
  <path d="m728.56,500h-334.81v100h281.25c22.82-30.42,40.88-64.14,53.56-100Z" fill="#356cb6"/>
  <rect x="287.5" y="568.75" width="181.25" height="93.75" fill="#8f5653"/>
  <path d="m375,750.62c91.69.16,180.24-33.44,248.75-94.37l-13.75-33.5c-10.69-25-38.88-41.5-70.56-41.5H210.56c-31.69,0-59.87,16.63-70.56,41.5l-13.75,33.5c68.51,60.94,157.06,94.53,248.75,94.37Z" fill="#fff"/>
  <line x1="375" y1="573.44" x2="375" y2="590.62" fill="none" stroke="#356cb6" stroke-linecap="round" stroke-linejoin="round" stroke-width="150"/>
  <line x1="375" y1="460.94" x2="375" y2="540.62" fill="none" stroke="#fbc0aa" stroke-linecap="round" stroke-linejoin="round" stroke-width="125"/>
  <path d="m375,564.81c-97.72.03-176.97-79.16-177-176.87,0-.04,0-.08,0-.13v-116.38c-.01-97.75,79.22-177.01,176.97-177.03,97.75-.01,177.01,79.22,177.03,176.97v116.43c.03,97.72-79.16,176.97-176.87,177h-.13Z" fill="#ffd8c9"/>
  <circle cx="454.19" cy="345.5" r="18.75" fill="#393c54"/>
  <circle cx="285.44" cy="345.5" r="18.75" fill="#393c54"/>
  <line x1="439.94" y1="306.25" x2="500" y2="304.69" fill="none" isolation="isolate" opacity=".4" stroke="#515570" stroke-linecap="round" stroke-linejoin="round" stroke-width="12.5"/>
  <line x1="306.25" y1="306.25" x2="246.19" y2="304.69" fill="none" isolation="isolate" opacity=".4" stroke="#515570" stroke-linecap="round" stroke-linejoin="round" stroke-width="12.5"/>
  <line x1="350" y1="512.5" x2="400" y2="512.5" fill="none" isolation="isolate" opacity=".4" stroke="#515570" stroke-linecap="round" stroke-linejoin="round" stroke-width="12.5"/>
  <path d="m409.38,487.5h-68.75c-12.08,0-21.88-9.79-21.88-21.88s9.79-21.88,21.88-21.88h68.75c12.08,0,21.88,9.79,21.88,21.88s-9.79,21.88-21.88,21.88Z" fill="#393c54"/>
  <path d="m337.5,443.75h75c0,6.9-5.6,12.5-12.5,12.5h-50c-6.9,0-12.5-5.6-12.5-12.5h0Z" fill="#fff"/>
  <path d="m350,487.5h59.38c12.08,0,21.88-9.79,21.88-21.88.07-1.04.07-2.08,0-3.12h-43.75c-16.4,0-31.19,9.86-37.5,25Z" fill="#f85565"/>
  <path d="m623.75,656.25l-13.75-33.5c-10.69-25-38.88-41.5-70.56-41.5h-76.94v157.5c58.37-15.06,117.5-43.69,161.25-82.5Z" fill="#db7a72"/>
  <path d="m140,622.75l-13.75,33.5c46.01,40.88,101.4,69.77,161.25,84.12v-159.12h-76.94c-31.69,0-59.87,16.63-70.56,41.5Z" fill="#db7a72"/>
  <path d="m462.5,568.75h31.25c10.36,0,18.75,8.39,18.75,18.75v56.25c0,27.61-22.39,50-50,50h0v-125h0Z" fill="#bc5b57"/>
  <path d="m375,412.5h106.25c0,17.26-13.99,31.25-31.25,31.25h-43.75c-17.26,0-31.25-13.99-31.25-31.25h0Z" fill="#ff6d00"/>
  <path d="m268.75,412.5h106.25c0,17.26-13.99,31.25-31.25,31.25h-43.75c-17.26,0-31.25-13.99-31.25-31.25h0Z" fill="#ff6d00"/>
  <path d="m556.25,437.5l23.69-11.81c8.47-4.24,13.82-12.9,13.81-22.38v-97.81c-.02-10.76-6.91-20.3-17.12-23.69l-20.38-6.81v162.5Z" fill="#db7a72"/>
  <path d="m375,425h0c-10.36,0-18.75-8.39-18.75-18.75v-118.75h37.5v118.75c0,10.36-8.39,18.75-18.75,18.75Z" fill="#fbc0aa"/>
  <path d="m193.75,437.5l-23.69-11.81c-8.47-4.24-13.82-12.9-13.81-22.38v-97.81c.02-10.76,6.91-20.3,17.12-23.69l20.38-6.81v162.5Z" fill="#db7a72"/>
  <path d="m373.62,303.5c-26.85,0-48.62-21.77-48.62-48.63s21.77-48.62,48.62-48.62" fill="#ff6d00"/>
  <path d="m415.25,331.25c-26.85,0-48.62-21.77-48.62-48.62s21.77-48.63,48.62-48.63" fill="#ff6d00"/>
  <path d="m287.5,693.75h0c-27.61,0-50-22.39-50-50v-56.25c0-10.36,8.39-18.75,18.75-18.75h31.25v125h0Z" fill="#bc5b57"/>
  <path d="m369.25,69.56c-103.06,3.06-183.75,90.31-183.75,193.44v258.87c.81,17.25,26.81,16.38,26.81-.94v-202.19c0-34.52,27.98-62.5,62.5-62.5.06,0,.13,0,.19,0h200c34.52,0,62.5,27.98,62.5,62.5v202c0,17.31,26,18.19,26.81.94v-262.75c-.13-104.76-85.16-189.58-189.92-189.45-1.71,0-3.43.03-5.14.08Z" fill="#bc5b57"/>
  <path d="m518.75,193.75h43.75c6.9,0,12.5,5.6,12.5,12.5v12.5c0,6.9-5.6,12.5-12.5,12.5h-43.75v-37.5h0Z" fill="#8f5653"/>
  <path d="m518.75,187.5h18.75c6.9,0,12.5,5.6,12.5,12.5v25c0,6.9-5.6,12.5-12.5,12.5h-18.75v-50h0Z" fill="#fff"/>
  <path d="m187.5,193.75h43.75v37.5h-43.75c-6.9,0-12.5-5.6-12.5-12.5v-12.5c0-6.9,5.6-12.5,12.5-12.5Z" fill="#8f5653"/>
  <path d="m231.25,237.5h-18.75c-6.9,0-12.5-5.6-12.5-12.5v-25c0-6.9,5.6-12.5,12.5-12.5h18.75v50h0Z" fill="#fff"/>
  <rect x="337.5" y="193.75" width="62.5" height="37.5" fill="#8f5653"/>
  <circle cx="456.25" cy="220.5" r="68.75" fill="#356cb6"/>
  <circle cx="456.25" cy="220.5" r="43" fill="#a7aece"/>
  <path d="m456.25,177.5c-1.21-.06-2.42-.06-3.63,0l-39.19,39.37v3.63c-.03,7.93,2.14,15.72,6.25,22.5l59.12-59.06c-6.77-4.21-14.59-6.43-22.56-6.44Z" fill="#fff" isolation="isolate" opacity=".3"/>
  <path d="m436.5,258.63l57.88-57.87c-1.84-3.47-4.16-6.67-6.87-9.5l-60.69,60.69c2.93,2.64,6.18,4.89,9.69,6.69Z" fill="#fff" isolation="isolate" opacity=".3"/>
  <circle cx="456.25" cy="220.5" r="62.37" fill="none" stroke="#515570" stroke-linecap="round" stroke-linejoin="round" stroke-width="13.88"/>
  <circle cx="293.75" cy="220.5" r="68.75" fill="#356cb6"/>
  <circle cx="293.75" cy="220.5" r="62.37" fill="none" stroke="#515570" stroke-linecap="round" stroke-linejoin="round" stroke-width="13.88"/>
  <circle cx="293.75" cy="220.5" r="43" fill="#a7aece"/>
  <path d="m293.75,177.5c-1.21-.06-2.42-.06-3.63,0l-39.19,39.37v3.63c-.03,7.93,2.14,15.72,6.25,22.5l59.12-59.06c-6.77-4.21-14.59-6.43-22.56-6.44Z" fill="#fff" isolation="isolate" opacity=".3"/>
  <path d="m274,258.63l57.87-57.87c-1.84-3.47-4.16-6.67-6.87-9.5l-60.69,60.69c2.93,2.64,6.18,4.89,9.69,6.69Z" fill="#fff" isolation="isolate" opacity=".3"/>
</svg>