<?xml version="1.0" encoding="UTF-8"?>
<svg id="uuid-4238cbcd-d49b-4c88-bca5-f164b7c96015" data-name="Layer 1" xmlns="http://www.w3.org/2000/svg" width="750" height="750" viewBox="0 0 750 750">
  <g id="uuid-b591f4fa-34fd-4b7e-92c5-bf16ae046dea" data-name="SVGRepo iconCarrier">
    <circle cx="375" cy="375" r="375" fill="#ffd033"/>
    <circle cx="375" cy="375" r="300" fill="#c9a42b" isolation="isolate" opacity=".3"/>
    <path d="m593.75,487.5c-13.81,0-25-11.19-25-25V187.5h0c-3.93-44.7-43.36-77.75-88.06-73.82-39.25,3.45-70.37,34.57-73.82,73.82h0l37.5,300c0,41.42,33.58,75,75,75s75-33.58,75-75h-.62Z" fill="#393c54"/>
    <circle cx="443.75" cy="200" r="62.5" fill="#f85565"/>
    <path d="m368.75,150h0c101.52,0,183.81,82.3,183.81,183.81h0v38.25c0,37.76-30.61,68.38-68.37,68.38h-230.88c-37.76,0-68.37-30.61-68.37-68.38h0v-38.25c0-101.52,82.3-183.81,183.81-183.81Z" fill="#393c54"/>
    <circle cx="512.38" cy="439.44" r="40.19" fill="#fbc0aa"/>
    <path d="m375,750c73.35.08,145.1-21.48,206.25-62l-16.63-46.5c-8.82-24.72-32.13-41.29-58.37-41.5H231.56c-26.42,0-50,16.61-58.88,41.5l-14.19,39.75c63.28,44.85,138.94,68.87,216.5,68.75Z" fill="#393c54"/>
    <path d="m493.25,600h-249c6.17,68.76,66.91,119.5,135.67,113.33,60.21-5.4,107.93-53.12,113.33-113.33Z" fill="#393c54"/>
    <path d="m425,607.81c0,31.07-25.18,56.25-56.25,56.25s-56.25-25.18-56.25-56.25,25-18.75,56.25-18.75,56.25-12.31,56.25,18.75Z" fill="#fff"/>
    <line x1="368.75" y1="523.44" x2="368.75" y2="609.38" fill="none" stroke="#fbc0aa" stroke-linecap="round" stroke-linejoin="round" stroke-width="75"/>
    <circle cx="225.13" cy="439.44" r="40.19" fill="#fbc0aa"/>
    <path d="m368.75,592.75c-79.39,0-143.75-64.36-143.75-143.75h0v-94.25c0-79.39,64.36-143.75,143.75-143.75s143.75,64.36,143.75,143.75v94.44c-.1,79.32-64.43,143.56-143.75,143.56Z" fill="#ffd8c9"/>
    <path d="m255.12,293.75c18.19-45.26,61.15-75.71,109.88-77.87" fill="none" isolation="isolate" opacity=".1" stroke="#fff" stroke-linecap="round" stroke-miterlimit="62.5" stroke-width="23"/>
    <path d="m530.12,342.62c.04-89.12-72.19-161.4-161.31-161.44-1.54,0-3.09.02-4.63.06-87.88,2.44-156.81,76.75-156.81,164.69v25c-.05,8.27,3.29,16.2,9.25,21.94,2.52,2.48,5.38,4.58,8.5,6.25v-24.13c0-13.81,11.19-25,25-25h33.63c2.38.02,4.56-1.32,5.63-3.44l10.62-21.56,10.75,21.56c1.07,2.12,3.25,3.45,5.63,3.44h171.12c13.81,0,25,11.19,25,25v24.31c3.12-1.67,5.98-3.77,8.5-6.25,5.96-5.74,9.3-13.67,9.25-21.94l-.13-28.5Z" fill="#515570"/>
    <path d="m416.69,445.5c0-10.36,8.39-18.75,18.75-18.75s18.75,8.39,18.75,18.75" fill="none" stroke="#515570" stroke-linecap="round" stroke-linejoin="round" stroke-width="12.5"/>
    <line x1="365.62" y1="459.38" x2="365.62" y2="484.38" fill="none" stroke="#fbc0aa" stroke-linecap="round" stroke-linejoin="round" stroke-width="29.44"/>
    <line x1="425" y1="400" x2="468.75" y2="400" fill="none" isolation="isolate" opacity=".2" stroke="#515570" stroke-linecap="round" stroke-linejoin="round" stroke-width="12.5"/>
    <path d="m318.75,445.5c0-10.36-8.39-18.75-18.75-18.75s-18.75,8.39-18.75,18.75" fill="none" stroke="#515570" stroke-linecap="round" stroke-linejoin="round" stroke-width="12.5"/>
    <line x1="312.5" y1="400" x2="268.75" y2="400" fill="none" isolation="isolate" opacity=".2" stroke="#515570" stroke-linecap="round" stroke-linejoin="round" stroke-width="12.5"/>
    <path d="m415.94,512.5c3.45.2,6.08,3.15,5.88,6.6,0,.03,0,.06,0,.09-3.49,29.34-30.11,50.29-59.45,46.8-24.54-2.92-43.88-22.27-46.8-46.8-.24-3.44,2.35-6.43,5.79-6.68.07,0,.14,0,.21-.01h94.38Z" fill="#393c54"/>
    <path d="m337.5,555.69c18.75,13.75,44.25,13.75,63,0-6.75-10.94-18.19-11.94-31.75-11.94s-25,1-31.25,11.94Z" fill="#f85565"/>
    <path d="m400,525h-62.5c-6.34-.35-11.19-5.78-10.84-12.12,0-.13.02-.25.03-.38h84.37c.56,6.33-4.12,11.91-10.45,12.46-.2.02-.41.03-.61.04Z" fill="#fff"/>
  </g>
</svg>